<?xml version="1.0" encoding="utf-8"?>
<svg version="1.1" xmlns="http://www.w3.org/2000/svg" width="130px" height="130px">
  <g style="transform-origin: 112px 264.935px;" transform="matrix(1, 0, 0, 1, -200.000397, -199.999634)">
    <path d="M 302.319 211.46 C 306.01 214.179 309.201 217.105 312.319 220.46 C 312.95 221.134 313.582 221.808 314.233 222.503 C 325.056 235.21 330.082 252.09 329.658 268.573 C 328.159 285.724 321.147 301.741 308.319 313.46 C 293.596 325.45 276.384 330.992 257.497 329.683 C 239.76 327.866 224.931 318.777 213.631 305.273 C 203.489 291.462 198.667 275.598 200.319 258.46 C 203.74 239.054 214.044 220.96 230.319 209.46 C 253.27 195.646 279.73 197.514 302.319 211.46 Z" style="transform-origin: -88px 325.46px;"/>
    <path d="M 287.319 213.46 C 296.551 215.768 302.507 222.305 308.319 229.46 C 307.68 229.691 307.042 229.922 306.384 230.161 C 304.128 231.277 304.128 231.277 303.589 233.615 C 303.484 234.484 303.38 235.353 303.272 236.249 C 303.149 237.19 303.027 238.131 302.901 239.101 C 302.791 240.085 302.681 241.07 302.569 242.085 C 302.381 243.574 302.381 243.574 302.19 245.093 C 301.883 247.547 301.593 250.002 301.319 252.46 C 299.428 253.162 297.531 253.846 295.631 254.523 C 294.575 254.905 293.52 255.288 292.432 255.683 C 287.779 256.845 285.518 256.166 281.416 253.753 C 280.415 253.058 279.413 252.363 278.381 251.648 C 277.382 250.96 276.383 250.273 275.354 249.565 C 274.352 248.871 273.35 248.176 272.319 247.46 C 270.658 246.596 270.658 246.596 268.963 245.714 C 266.319 243.46 266.319 243.46 265.733 239.569 C 265.772 238.115 265.844 236.661 265.944 235.21 C 265.971 234.465 265.998 233.72 266.026 232.952 C 266.096 231.12 266.204 229.29 266.319 227.46 C 281.747 219.46 281.747 219.46 287.319 219.46 C 287.319 217.48 287.319 215.5 287.319 213.46 Z" style="fill: rgb(255, 255, 255); transform-origin: -88px 325.46px;"/>
    <path d="M 240.319 214.46 C 240.397 215.244 240.475 216.028 240.555 216.836 C 241.039 219.563 241.039 219.563 243.16 220.654 C 243.945 220.915 244.729 221.176 245.537 221.444 C 246.387 221.74 247.236 222.035 248.112 222.339 C 249.005 222.626 249.898 222.914 250.819 223.21 C 252.58 223.807 254.34 224.406 256.1 225.007 C 256.884 225.263 257.669 225.519 258.477 225.783 C 260.319 226.46 260.319 226.46 261.319 227.46 C 262.569 232.837 263.329 238.188 261.319 243.46 C 258.879 246.529 256.06 248.751 252.881 251.023 C 252.099 251.588 251.318 252.154 250.513 252.736 C 245.687 255.862 242.156 257.208 236.444 256.031 C 235.742 255.843 235.041 255.654 234.319 255.46 C 233.642 255.335 232.965 255.209 232.268 255.08 C 230.377 254.565 230.377 254.565 227.319 252.46 C 226.016 248.962 225.701 245.475 225.381 241.773 C 225.27 240.784 225.158 239.796 225.043 238.778 C 224.772 236.34 224.532 233.903 224.319 231.46 C 222.999 231.46 221.679 231.46 220.319 231.46 C 223.209 225.096 232.745 214.46 240.319 214.46 Z" style="fill: rgb(255, 255, 255); transform-origin: -88px 325.46px;"/>
    <path d="M 306.162 259.878 C 306.709 260.462 307.255 261.046 307.819 261.648 C 308.414 262.271 309.01 262.895 309.623 263.538 C 311.153 265.273 312.548 267.055 313.944 268.898 C 316.038 271.749 316.038 271.749 318.967 271.62 C 319.743 271.567 320.519 271.514 321.319 271.46 C 321.282 280.586 318.494 287.428 314.319 295.46 C 313.884 294.962 313.45 294.465 313.002 293.952 C 311.326 292.119 311.326 292.119 308.381 292.585 C 303.87 293.445 299.427 294.662 294.99 295.839 C 292.319 296.46 292.319 296.46 289.319 296.46 C 287.24 294.3 287.24 294.3 285.069 291.398 C 284.342 290.458 283.614 289.518 282.865 288.55 C 280.866 284.557 281.291 282.773 282.319 278.46 C 282.478 277.736 282.637 277.012 282.801 276.266 C 286.125 261.998 286.125 261.998 290.987 258.589 C 296.131 257.138 301.695 256.442 306.162 259.878 Z" style="fill: rgb(255, 255, 255); transform-origin: -88px 325.46px;"/>
    <path d="M 264.569 286.335 C 266.261 286.329 266.261 286.329 267.988 286.323 C 277.236 286.68 277.236 286.68 280.963 290.155 C 283.289 292.989 284.912 296.073 286.319 299.46 C 285.048 301.69 283.777 303.919 282.506 306.148 C 282.15 306.773 281.793 307.399 281.426 308.044 C 279.43 311.541 277.406 315.016 275.319 318.46 C 275.979 319.45 276.639 320.44 277.319 321.46 C 273.923 321.489 270.527 321.507 267.131 321.523 C 266.171 321.531 265.212 321.539 264.223 321.548 C 263.291 321.551 262.36 321.554 261.401 321.558 C 260.547 321.563 259.693 321.568 258.814 321.574 C 256.226 321.456 253.842 321.031 251.319 320.46 C 251.69 319.88 252.061 319.3 252.443 318.703 C 253.578 316.52 253.578 316.52 252.628 314.537 C 252.198 313.888 251.769 313.238 251.326 312.569 C 250.869 311.86 250.411 311.151 249.94 310.421 C 249.446 309.691 248.952 308.962 248.444 308.21 C 247.958 307.465 247.472 306.72 246.971 305.952 C 245.767 304.112 244.55 302.282 243.319 300.46 C 244.602 298.083 245.927 295.773 247.319 293.46 C 247.973 292.349 248.628 291.238 249.303 290.093 C 253.164 285.675 259.13 286.316 264.569 286.335 Z" style="fill: rgb(255, 255, 255); transform-origin: -88px 325.46px;"/>
    <path d="M 229.287 258.339 C 230.642 258.67 231.987 259.044 233.319 259.46 C 234.544 259.762 235.77 260.063 237.033 260.374 C 241.934 263.486 243.023 267.496 244.881 272.835 C 245.248 273.781 245.615 274.727 245.992 275.702 C 248.556 282.709 248.556 282.709 247.475 286.129 C 245.532 290.045 243.686 293.585 240.319 296.46 C 237.114 297.101 234.433 296.306 231.319 295.46 C 229.712 295.081 229.712 295.081 228.072 294.694 C 225.142 293.99 222.229 293.243 219.319 292.46 C 218.989 293.12 218.659 293.78 218.319 294.46 C 215.319 293.46 215.319 293.46 213.967 290.835 C 211.494 284.28 209.675 278.47 209.319 271.46 C 210.639 271.79 211.959 272.12 213.319 272.46 C 214.092 271.438 214.865 270.416 215.662 269.362 C 216.713 268.04 217.765 266.718 218.819 265.398 C 219.324 264.721 219.829 264.045 220.35 263.349 C 223.345 259.661 224.345 258.49 229.287 258.339 Z" style="fill: rgb(255, 255, 255); transform-origin: -88px 325.46px;"/>
  </g>
</svg>