<?xml version="1.0" encoding="utf-8"?>
<svg version="1.1" xmlns="http://www.w3.org/2000/svg" width="1000px" height="303px">
  <path d="M 0 0 C 330.001 0 660.001 0 999.998 0 C 999.998 99.99 999.998 199.98 999.998 303 C 670.001 303 340.001 303 0 303 C 0 203.01 0 103.02 0 0 Z" style="fill: rgb(255, 255, 255);"/>
  <path d="M 111.115 233.883 C 115.352 233.956 119.589 233.906 123.827 233.871 C 131.246 233.828 138.662 233.862 146.082 233.948 C 157.113 234.075 168.142 234.081 179.173 234.062 C 197.731 234.035 216.287 234.105 234.845 234.231 C 253.215 234.355 271.585 234.436 289.956 234.459 C 291.099 234.46 292.242 234.461 293.419 234.463 C 299.223 234.47 305.027 234.476 310.831 234.482 C 351.925 234.527 393.018 234.668 434.112 234.867 C 474.031 235.06 513.95 235.208 553.869 235.297 C 555.1 235.3 556.331 235.303 557.599 235.306 C 569.958 235.333 582.318 235.36 594.678 235.386 C 619.856 235.44 645.034 235.499 670.212 235.562 C 671.37 235.565 672.527 235.568 673.72 235.571 C 751.006 235.764 828.292 236.096 905.578 236.451 C 905.101 238.077 904.621 239.702 904.141 241.326 C 903.874 242.231 903.607 243.136 903.332 244.068 C 902.578 246.451 902.578 246.451 901.578 248.451 C 882.918 249.18 864.275 249.626 845.601 249.846 C 822.151 250.125 798.71 250.571 775.268 251.258 C 773.213 251.319 771.157 251.379 769.101 251.438 C 764.139 251.583 759.177 251.727 754.215 251.872 C 684.635 253.905 615.056 255.115 545.453 256.013 C 543.127 256.044 540.801 256.074 538.475 256.104 C 526.831 256.254 515.187 256.404 503.544 256.553 C 501.816 256.576 501.816 256.576 500.054 256.598 C 494.245 256.673 488.436 256.747 482.628 256.821 C 436.05 257.415 389.473 258.111 342.898 258.872 C 336.282 258.98 329.667 259.086 323.052 259.19 C 312.49 259.357 301.928 259.528 291.367 259.705 C 290.526 259.719 289.685 259.733 288.818 259.747 C 269.769 260.067 250.724 260.447 231.68 260.981 C 230.865 261.004 230.051 261.027 229.212 261.05 C 225.141 261.165 221.07 261.281 216.999 261.396 C 184.291 262.325 151.629 262.714 118.904 262.588 C 112.711 262.567 106.517 262.559 100.324 262.549 C 88.409 262.528 76.493 262.494 64.578 262.451 C 74.454 237.582 85.635 233.306 111.115 233.883 Z" style=""/>
  <path d="M 535.578 88.451 C 539.269 91.17 542.46 94.096 545.578 97.451 C 546.21 98.125 546.841 98.799 547.492 99.494 C 558.315 112.201 563.341 129.081 562.918 145.564 C 561.418 162.715 554.407 178.732 541.578 190.451 C 526.856 202.441 509.643 207.983 490.756 206.674 C 473.02 204.857 458.19 195.768 446.891 182.264 C 436.748 168.453 431.926 152.589 433.578 135.451 C 436.999 116.045 447.304 97.951 463.578 86.451 C 486.529 72.637 512.989 74.505 535.578 88.451 Z" style=""/>
  <path d="M 61.578 44.451 C 72.798 44.451 84.018 44.451 95.578 44.451 C 96.779 54.058 97.918 63.488 98.543 73.119 C 98.66 74.835 98.66 74.835 98.779 76.586 C 99.029 80.27 99.272 83.954 99.515 87.639 C 99.689 90.201 99.862 92.763 100.036 95.326 C 100.794 106.524 101.534 117.723 102.256 128.924 C 102.527 133.136 102.801 137.348 103.075 141.56 C 103.263 144.475 103.445 147.39 103.627 150.305 C 103.739 152.053 103.852 153.801 103.965 155.549 C 104.012 156.344 104.06 157.139 104.109 157.958 C 104.043 161.505 104.043 161.505 105.578 164.451 C 106.181 163.283 106.181 163.283 106.796 162.09 C 108.343 159.095 109.89 156.1 111.437 153.105 C 112.097 151.828 112.756 150.551 113.415 149.274 C 114.383 147.399 115.351 145.525 116.32 143.65 C 116.66 142.992 117 142.334 117.351 141.656 C 119.137 138.209 120.936 134.769 122.759 131.34 C 130.185 117.367 137.282 103.231 144.357 89.078 C 146.115 85.563 147.878 82.051 149.642 78.539 C 151.021 75.793 152.396 73.044 153.77 70.295 C 154.419 68.999 155.068 67.704 155.72 66.41 C 156.629 64.6 157.533 62.788 158.437 60.976 C 159.204 59.443 159.204 59.443 159.987 57.879 C 162.028 53.481 163.777 48.953 165.578 44.451 C 176.798 44.451 188.018 44.451 199.578 44.451 C 196.203 54.576 196.203 54.576 194.56 57.751 C 194.192 58.47 193.824 59.189 193.445 59.929 C 193.055 60.677 192.664 61.424 192.262 62.193 C 191.846 63.001 191.43 63.809 191.001 64.641 C 189.679 67.206 188.347 69.766 187.015 72.326 C 186.15 74.003 185.284 75.68 184.42 77.357 C 178.919 88.013 173.345 98.631 167.747 109.236 C 166.633 111.347 165.521 113.458 164.409 115.57 C 156.94 129.752 149.441 143.905 141.481 157.821 C 138.388 163.231 135.349 168.667 132.359 174.135 C 131.818 175.123 131.818 175.123 131.266 176.132 C 129.831 178.752 128.397 181.372 126.973 183.998 C 125.99 185.81 125.001 187.619 124.012 189.428 C 123.445 190.47 122.878 191.512 122.295 192.586 C 120.537 195.519 119.01 198.037 116.578 200.451 C 113.665 201.066 113.665 201.066 110.308 201.045 C 108.48 201.041 108.48 201.041 106.615 201.037 C 105.345 201.009 104.074 200.98 102.765 200.951 C 101.507 200.954 100.248 200.956 98.951 200.959 C 90.842 200.873 85.294 200.407 78.828 195.264 C 73.426 188.51 72.867 180.654 72.078 172.326 C 71.956 171.122 71.834 169.917 71.709 168.677 C 70.535 156.733 69.618 144.767 68.703 132.801 C 67.922 122.611 67.053 112.436 66.078 102.264 C 65.041 91.422 64.036 80.579 63.094 69.729 C 62.96 68.187 62.825 66.645 62.688 65.104 C 62.499 62.958 62.313 60.812 62.129 58.666 C 62.022 57.44 61.916 56.214 61.806 54.951 C 61.578 51.457 61.578 47.952 61.578 44.451 Z" style=""/>
  <path d="M 782.075 81.274 C 783.034 81.261 783.993 81.248 784.981 81.235 C 786.029 81.228 787.077 81.22 788.156 81.213 C 789.234 81.205 790.311 81.197 791.421 81.188 C 793.715 81.174 796.008 81.164 798.302 81.156 C 801.772 81.139 805.241 81.095 808.711 81.051 C 835.009 80.864 835.009 80.864 845.141 88.701 C 850.1 93.65 852.784 98.313 852.833 105.414 C 852.735 111.912 851.456 117.985 850.004 124.299 C 849.735 125.508 849.466 126.716 849.189 127.962 C 848.333 131.795 847.458 135.623 846.578 139.451 C 846.296 140.685 846.015 141.919 845.725 143.19 C 843.767 151.763 841.771 160.327 839.766 168.888 C 838.888 172.643 838.011 176.398 837.135 180.153 C 836.598 182.457 836.059 184.761 835.519 187.065 C 835.279 188.095 835.038 189.125 834.79 190.187 C 834.579 191.086 834.368 191.986 834.151 192.912 C 833.585 195.418 833.071 197.93 832.578 200.451 C 817.188 201.055 801.792 201.57 786.389 201.683 C 784.377 201.701 782.365 201.733 780.353 201.765 C 768.715 201.807 758.648 200.198 749.578 192.451 C 743.936 185.652 743.051 178.645 743.199 170.06 C 744.259 159.965 748.135 150.305 754.578 142.451 C 755.055 141.84 755.532 141.229 756.023 140.599 C 762.916 132.737 774.33 127.665 784.578 126.451 C 790.602 126.221 796.613 126.262 802.641 126.326 C 804.286 126.336 805.931 126.345 807.576 126.353 C 811.577 126.375 815.577 126.41 819.578 126.451 C 819.686 124.181 819.764 121.91 819.828 119.638 C 819.874 118.374 819.921 117.109 819.969 115.806 C 819.935 112.445 819.935 112.445 817.852 110.768 C 815.266 109.27 813.777 109.059 810.809 109.019 C 809.869 108.999 808.928 108.979 807.959 108.959 C 806.952 108.952 805.944 108.946 804.906 108.939 C 803.35 108.912 803.35 108.912 801.762 108.885 C 798.451 108.831 795.14 108.797 791.828 108.763 C 789.582 108.73 787.336 108.696 785.09 108.66 C 779.586 108.575 774.082 108.507 768.578 108.451 C 769.049 106.707 769.521 104.964 769.994 103.221 C 770.256 102.25 770.519 101.279 770.79 100.279 C 771.818 96.589 772.978 92.955 774.203 89.326 C 774.42 88.669 774.636 88.011 774.859 87.334 C 776.867 81.335 776.867 81.335 782.075 81.274 Z" style=""/>
  <path d="M 620.837 44.337 C 622.078 44.338 623.319 44.338 624.597 44.338 C 625.941 44.343 627.285 44.348 628.629 44.353 C 630.012 44.355 631.395 44.357 632.778 44.358 C 636.406 44.361 640.034 44.371 643.662 44.382 C 647.369 44.393 651.076 44.397 654.783 44.402 C 662.048 44.413 669.313 44.43 676.578 44.451 C 675.975 47.035 675.371 49.618 674.766 52.201 C 674.6 52.911 674.434 53.622 674.264 54.353 C 672.767 60.736 671.179 67.094 669.578 73.451 C 668.944 73.455 668.311 73.458 667.658 73.462 C 661.038 73.504 654.42 73.573 647.801 73.659 C 645.333 73.687 642.866 73.708 640.398 73.722 C 636.843 73.743 633.289 73.79 629.734 73.842 C 628.09 73.843 628.09 73.843 626.413 73.845 C 620.075 73.965 614.77 74.551 609.578 78.451 C 606.751 81.676 605.656 84.801 605.141 89.076 C 605.623 92.797 606.39 94.437 608.578 97.451 C 611.058 99.339 611.058 99.339 614.141 100.951 C 614.724 101.276 615.308 101.602 615.909 101.937 C 620.197 104.285 624.573 106.439 628.969 108.576 C 630.106 109.132 631.244 109.688 632.416 110.262 C 634.687 111.366 636.965 112.456 639.25 113.531 C 649.385 118.441 657.249 123.808 661.578 134.451 C 665.647 146.657 661.047 161.722 655.766 172.951 C 648.307 186.695 636.897 193.91 622.256 198.49 C 616.274 199.963 610.232 199.698 604.109 199.646 C 602.833 199.643 601.557 199.641 600.242 199.638 C 596.876 199.628 593.509 199.611 590.142 199.588 C 586.696 199.568 583.25 199.559 579.805 199.549 C 573.062 199.527 566.32 199.493 559.578 199.451 C 560.696 195.366 561.824 191.283 562.953 187.201 C 563.429 185.463 563.429 185.463 563.914 183.689 C 564.223 182.574 564.533 181.459 564.851 180.31 C 565.134 179.284 565.417 178.258 565.708 177.2 C 566.474 174.78 567.365 172.673 568.578 170.451 C 569.162 170.445 569.745 170.439 570.346 170.433 C 576.447 170.369 582.546 170.285 588.646 170.189 C 590.92 170.155 593.193 170.127 595.467 170.105 C 598.744 170.071 602.02 170.019 605.297 169.963 C 606.305 169.956 607.314 169.95 608.353 169.943 C 615.363 169.799 621.756 169.273 626.953 164.076 C 630.029 159.108 631.213 155.373 630.578 149.451 C 627.816 145.25 624.91 143.222 620.484 140.928 C 619.897 140.618 619.31 140.309 618.704 139.99 C 616.834 139.008 614.957 138.042 613.078 137.076 C 610.628 135.802 608.181 134.522 605.734 133.24 C 605.134 132.926 604.534 132.612 603.915 132.289 C 578.384 118.87 578.384 118.87 573.578 104.451 C 572.237 88.532 576.539 71.665 586.527 58.974 C 595.783 49.264 607.442 44.31 620.837 44.337 Z" style=""/>
  <path d="M 263.512 87.619 C 268.323 91.885 270.079 96.438 271.117 102.705 C 271.833 115.201 267.962 127.073 264.561 138.978 C 263.198 143.792 261.895 148.623 260.578 153.451 C 240.118 153.451 219.658 153.451 198.578 153.451 C 195.978 162.317 195.978 162.317 197.891 170.764 C 200.733 173.606 203.596 173.588 207.417 173.656 C 208.397 173.676 209.378 173.696 210.389 173.717 C 211.445 173.733 212.501 173.75 213.59 173.767 C 215.215 173.799 215.215 173.799 216.873 173.83 C 220.337 173.896 223.801 173.955 227.266 174.014 C 229.613 174.057 231.96 174.1 234.307 174.144 C 240.064 174.251 245.821 174.353 251.578 174.451 C 251.312 175.574 251.047 176.697 250.773 177.853 C 250.417 179.365 250.06 180.877 249.703 182.389 C 249.529 183.124 249.355 183.859 249.176 184.617 C 247.933 189.886 246.74 195.164 245.578 200.451 C 238.498 200.502 231.418 200.537 224.338 200.561 C 221.932 200.571 219.527 200.584 217.122 200.602 C 213.652 200.626 210.181 200.638 206.711 200.646 C 205.647 200.657 204.583 200.667 203.487 200.678 C 192.469 200.679 181.372 199.315 172.723 191.849 C 166.329 184.935 165.138 178.009 165.221 168.778 C 165.684 160.848 167.951 153.13 169.948 145.475 C 170.699 142.593 171.421 139.705 172.141 136.814 C 182.192 97.023 182.192 97.023 199.578 86.451 C 218.171 78.291 245.824 75.642 263.512 87.619 Z" style=""/>
  <path d="M 400.398 82.256 C 401.383 82.259 402.368 82.261 403.382 82.264 C 406.489 82.275 409.596 82.3 412.703 82.326 C 414.825 82.336 416.948 82.345 419.07 82.353 C 424.24 82.375 429.409 82.41 434.578 82.451 C 431.192 94.902 431.192 94.902 429.453 101.076 C 429.12 102.265 428.788 103.453 428.445 104.678 C 427.578 107.451 427.578 107.451 426.578 108.451 C 423.984 108.574 421.412 108.637 418.816 108.662 C 417.206 108.69 415.596 108.719 413.986 108.748 C 411.443 108.789 408.9 108.826 406.357 108.852 C 403.905 108.88 401.455 108.926 399.004 108.974 C 397.874 108.979 397.874 108.979 396.721 108.984 C 391.953 109.094 388.609 109.88 384.578 112.451 C 382.519 115.54 382.339 116.16 382.453 119.639 C 382.494 120.897 382.536 122.155 382.578 123.451 C 383.367 123.705 384.156 123.959 384.969 124.221 C 412.627 133.649 412.627 133.649 421.203 143.451 C 425.326 152.208 422.876 163.796 419.848 172.506 C 415.082 183.561 406.8 191.755 395.832 196.685 C 387.844 199.743 380.335 200.576 371.816 200.584 C 370.748 200.585 370.748 200.585 369.657 200.587 C 368.159 200.587 366.661 200.586 365.162 200.581 C 362.913 200.576 360.665 200.581 358.416 200.588 C 356.945 200.587 355.474 200.586 354.004 200.584 C 352.046 200.582 352.046 200.582 350.048 200.58 C 344.215 200.412 338.396 199.899 332.578 199.451 C 334.888 190.871 337.198 182.291 339.578 173.451 C 342.757 173.414 345.936 173.376 349.211 173.338 C 352.299 173.291 355.387 173.24 358.474 173.189 C 360.616 173.155 362.758 173.127 364.899 173.105 C 367.983 173.071 371.065 173.019 374.148 172.963 C 375.578 172.953 375.578 172.953 377.037 172.943 C 382.261 172.829 386.101 172.448 390.578 169.451 C 393.11 165.653 393.352 163.942 392.578 159.451 C 387.306 154.948 380.951 153.019 374.518 150.679 C 365.968 147.549 358.767 144.272 353.578 136.451 C 350.234 126.42 352.138 113.785 356.578 104.451 C 361.748 94.708 369.138 88.036 379.578 84.451 C 386.541 82.615 393.225 82.176 400.398 82.256 Z" style=""/>
  <path d="M 707.578 55.451 C 717.478 55.451 727.378 55.451 737.578 55.451 C 736.98 58.05 736.382 60.649 735.766 63.326 C 735.584 64.122 735.402 64.919 735.215 65.74 C 733.893 71.417 732.263 76.835 730.578 82.451 C 739.488 82.451 748.398 82.451 757.578 82.451 C 755.953 91.39 753.979 99.728 751.578 108.451 C 742.338 108.451 733.098 108.451 723.578 108.451 C 723.016 111.036 722.454 113.62 721.875 116.283 C 720.432 122.831 718.886 129.344 717.219 135.838 C 717.022 136.605 716.826 137.372 716.624 138.162 C 715.822 141.287 715.018 144.41 714.203 147.531 C 713.597 149.86 713.001 152.193 712.406 154.525 C 712.222 155.22 712.037 155.915 711.848 156.631 C 710.746 160.991 710.29 164.959 710.578 169.451 C 712.121 171.555 713.259 172.292 715.578 173.451 C 717.098 173.602 718.623 173.7 720.148 173.767 C 721.044 173.809 721.94 173.851 722.863 173.894 C 723.8 173.934 724.737 173.973 725.703 174.014 C 727.12 174.078 727.12 174.078 728.566 174.144 C 730.903 174.251 733.241 174.353 735.578 174.451 C 734.919 177.831 734.188 181.184 733.387 184.533 C 733.164 185.464 732.942 186.396 732.713 187.355 C 732.483 188.315 732.253 189.275 732.016 190.264 C 731.782 191.243 731.548 192.222 731.307 193.23 C 730.731 195.637 730.155 198.044 729.578 200.451 C 725.668 200.526 721.758 200.58 717.847 200.616 C 715.878 200.638 713.91 200.676 711.941 200.715 C 702.528 200.786 692.496 200.607 684.578 194.889 C 679.386 189.735 677.502 183.56 677.399 176.389 C 677.437 170.781 678.378 165.786 679.808 160.385 C 680.041 159.466 680.273 158.548 680.512 157.602 C 681.251 154.694 682.008 151.791 682.766 148.889 C 683.254 146.971 683.742 145.054 684.228 143.137 C 687.188 131.53 690.335 119.982 693.578 108.451 C 687.968 108.451 682.358 108.451 676.578 108.451 C 678.871 99.642 681.639 91.06 684.578 82.451 C 689.198 82.121 693.818 81.791 698.578 81.451 C 699.06 79.993 699.542 78.535 700.039 77.033 C 700.677 75.11 701.315 73.187 701.953 71.264 C 702.27 70.304 702.587 69.344 702.914 68.355 C 703.223 67.424 703.533 66.493 703.851 65.533 C 704.276 64.253 704.276 64.253 704.708 62.946 C 705.589 60.42 706.584 57.935 707.578 55.451 Z" style=""/>
  <path d="M 891.578 55.451 C 901.478 55.451 911.378 55.451 921.578 55.451 C 920.98 57.864 920.382 60.277 919.766 62.764 C 919.584 63.499 919.402 64.234 919.215 64.991 C 917.759 70.841 916.166 76.63 914.578 82.451 C 922.828 82.451 931.078 82.451 939.578 82.451 C 938.98 85.07 938.382 87.69 937.766 90.389 C 937.584 91.194 937.402 92 937.215 92.83 C 937.061 93.497 936.906 94.165 936.746 94.853 C 936.594 95.518 936.442 96.183 936.286 96.869 C 935.214 100.778 933.86 104.605 932.578 108.451 C 924.328 108.451 916.078 108.451 907.578 108.451 C 906.75 111.808 906.75 111.808 905.906 115.232 C 904.343 121.523 902.696 127.788 901 134.045 C 900.557 135.688 900.114 137.331 899.672 138.974 C 898.996 141.481 898.318 143.987 897.631 146.491 C 896.953 148.965 896.288 151.442 895.625 153.92 C 895.419 154.659 895.212 155.399 895 156.161 C 893.706 161.058 893.233 165.38 893.578 170.451 C 896.999 174.059 901.417 173.882 906.127 174.07 C 907.039 174.093 907.951 174.115 908.891 174.139 C 909.822 174.173 910.753 174.207 911.713 174.242 C 914.001 174.324 916.289 174.393 918.578 174.451 C 918.312 175.502 918.047 176.552 917.773 177.635 C 917.416 179.053 917.06 180.471 916.703 181.889 C 916.529 182.576 916.355 183.264 916.176 183.972 C 914.885 189.113 913.705 194.272 912.578 199.451 C 908.061 199.551 903.546 199.623 899.028 199.671 C 897.496 199.691 895.964 199.718 894.432 199.753 C 874.906 200.186 874.906 200.186 867.655 193.742 C 862.103 187.877 861.389 182.156 861.448 174.342 C 861.635 170.191 862.403 166.352 863.391 162.326 C 863.597 161.448 863.803 160.57 864.016 159.665 C 868.152 142.501 872.942 125.485 877.578 108.451 C 871.968 108.451 866.358 108.451 860.578 108.451 C 863.218 99.871 865.858 91.291 868.578 82.451 C 873.528 82.451 878.478 82.451 883.578 82.451 C 883.97 80.966 884.362 79.481 884.766 77.951 C 886.823 70.383 889.213 62.928 891.578 55.451 Z" style=""/>
  <path d="M 316.979 82.337 C 318.27 82.338 318.27 82.338 319.587 82.338 C 320.507 82.343 321.427 82.348 322.375 82.353 C 323.798 82.355 323.798 82.355 325.25 82.358 C 328.276 82.363 331.302 82.376 334.328 82.388 C 336.381 82.394 338.435 82.398 340.488 82.402 C 345.518 82.413 350.548 82.43 355.578 82.451 C 355.107 84.03 354.635 85.609 354.162 87.187 C 353.9 88.066 353.637 88.945 353.366 89.851 C 352.283 93.424 351.132 96.972 349.953 100.513 C 349.736 101.175 349.52 101.837 349.297 102.519 C 347.698 107.331 347.698 107.331 346.578 108.451 C 344.942 108.572 343.301 108.631 341.66 108.662 C 340.653 108.69 339.645 108.719 338.607 108.748 C 336.482 108.799 334.357 108.844 332.232 108.881 C 324.383 108.979 324.383 108.979 317.578 112.451 C 313.042 120.97 311.118 130.306 308.812 139.611 C 308.37 141.37 307.928 143.128 307.484 144.886 C 306.326 149.486 305.178 154.088 304.032 158.69 C 302.858 163.398 301.675 168.103 300.492 172.808 C 298.178 182.02 295.876 191.235 293.578 200.451 C 283.678 200.451 273.778 200.451 263.578 200.451 C 264.215 195.357 264.836 190.922 266.065 186.033 C 266.366 184.826 266.667 183.62 266.977 182.377 C 267.306 181.077 267.635 179.778 267.965 178.478 C 268.308 177.11 268.651 175.742 268.993 174.373 C 269.896 170.773 270.804 167.173 271.714 163.574 C 272.617 159.995 273.514 156.413 274.412 152.832 C 275.972 146.614 277.545 140.399 279.126 134.186 C 280.19 130.001 281.231 125.81 282.26 121.616 C 282.768 119.583 283.276 117.55 283.785 115.517 C 283.997 114.631 284.21 113.744 284.428 112.831 C 286.473 104.761 289.883 94.822 296.578 89.451 C 303.119 85.632 309.304 82.315 316.979 82.337 Z" style=""/>
  <path d="M 520.578 90.451 C 529.81 92.759 535.767 99.296 541.578 106.451 C 540.94 106.682 540.301 106.913 539.643 107.152 C 537.387 108.268 537.387 108.268 536.849 110.606 C 536.744 111.475 536.639 112.344 536.531 113.24 C 536.409 114.181 536.286 115.122 536.16 116.092 C 536.05 117.076 535.941 118.061 535.828 119.076 C 535.64 120.565 535.64 120.565 535.449 122.084 C 535.142 124.538 534.853 126.993 534.578 129.451 C 532.688 130.153 530.79 130.837 528.891 131.514 C 527.835 131.896 526.779 132.279 525.691 132.674 C 521.038 133.836 518.778 133.157 514.676 130.744 C 513.674 130.049 512.672 129.354 511.641 128.639 C 510.641 127.951 509.642 127.264 508.613 126.556 C 507.612 125.862 506.61 125.167 505.578 124.451 C 503.917 123.587 503.917 123.587 502.223 122.705 C 499.578 120.451 499.578 120.451 498.992 116.56 C 499.032 115.106 499.103 113.652 499.203 112.201 C 499.23 111.456 499.257 110.711 499.285 109.943 C 499.355 108.111 499.463 106.281 499.578 104.451 C 515.007 96.451 515.007 96.451 520.578 96.451 C 520.578 94.471 520.578 92.491 520.578 90.451 Z" style="fill: rgb(255, 255, 255);"/>
  <path d="M 473.578 91.451 C 473.656 92.235 473.734 93.019 473.814 93.827 C 474.298 96.554 474.298 96.554 476.42 97.645 C 477.204 97.906 477.989 98.167 478.797 98.435 C 479.646 98.731 480.496 99.026 481.371 99.33 C 482.264 99.617 483.158 99.905 484.078 100.201 C 485.839 100.798 487.599 101.397 489.359 101.998 C 490.144 102.254 490.928 102.51 491.736 102.774 C 493.578 103.451 493.578 103.451 494.578 104.451 C 495.829 109.828 496.588 115.179 494.578 120.451 C 492.138 123.52 489.32 125.742 486.141 128.014 C 485.359 128.579 484.577 129.145 483.772 129.727 C 478.947 132.853 475.415 134.199 469.703 133.022 C 469.002 132.834 468.301 132.645 467.578 132.451 C 466.901 132.326 466.224 132.2 465.527 132.071 C 463.637 131.556 463.637 131.556 460.578 129.451 C 459.275 125.953 458.961 122.466 458.641 118.764 C 458.529 117.775 458.417 116.787 458.303 115.769 C 458.032 113.331 457.792 110.894 457.578 108.451 C 456.258 108.451 454.938 108.451 453.578 108.451 C 456.468 102.087 466.005 91.451 473.578 91.451 Z" style="fill: rgb(255, 255, 255);"/>
  <path d="M 539.422 136.869 C 539.968 137.453 540.515 138.037 541.078 138.639 C 541.674 139.262 542.269 139.886 542.883 140.529 C 544.413 142.264 545.808 144.046 547.203 145.889 C 549.297 148.74 549.297 148.74 552.226 148.611 C 553.002 148.558 553.778 148.505 554.578 148.451 C 554.541 157.577 551.754 164.419 547.578 172.451 C 547.144 171.953 546.709 171.456 546.262 170.943 C 544.586 169.11 544.586 169.11 541.641 169.576 C 537.13 170.436 532.686 171.653 528.25 172.83 C 525.578 173.451 525.578 173.451 522.578 173.451 C 520.5 171.291 520.5 171.291 518.328 168.389 C 517.601 167.449 516.874 166.509 516.125 165.541 C 514.126 161.548 514.551 159.764 515.578 155.451 C 515.737 154.727 515.896 154.003 516.06 153.257 C 519.385 138.989 519.385 138.989 524.246 135.58 C 529.39 134.129 534.954 133.433 539.422 136.869 Z" style="fill: rgb(255, 255, 255);"/>
  <path d="M 497.828 163.326 C 499.521 163.32 499.521 163.32 501.248 163.314 C 510.496 163.671 510.496 163.671 514.223 167.146 C 516.549 169.98 518.172 173.064 519.578 176.451 C 518.308 178.681 517.037 180.91 515.766 183.139 C 515.409 183.764 515.053 184.39 514.685 185.035 C 512.69 188.532 510.665 192.007 508.578 195.451 C 509.238 196.441 509.898 197.431 510.578 198.451 C 507.182 198.48 503.786 198.498 500.391 198.514 C 499.431 198.522 498.471 198.53 497.482 198.539 C 496.551 198.542 495.62 198.545 494.66 198.549 C 493.806 198.554 492.953 198.559 492.073 198.565 C 489.486 198.447 487.101 198.022 484.578 197.451 C 484.949 196.871 485.32 196.291 485.703 195.694 C 486.838 193.511 486.838 193.511 485.887 191.528 C 485.458 190.879 485.028 190.229 484.586 189.56 C 484.128 188.851 483.671 188.142 483.199 187.412 C 482.705 186.682 482.212 185.953 481.703 185.201 C 481.217 184.456 480.731 183.711 480.23 182.943 C 479.027 181.103 477.809 179.273 476.578 177.451 C 477.862 175.074 479.187 172.764 480.578 170.451 C 481.233 169.34 481.888 168.229 482.562 167.084 C 486.423 162.666 492.389 163.307 497.828 163.326 Z" style="fill: rgb(255, 255, 255);"/>
  <path d="M 462.547 135.33 C 463.902 135.661 465.247 136.035 466.578 136.451 C 467.804 136.753 469.03 137.054 470.293 137.365 C 475.193 140.477 476.283 144.487 478.141 149.826 C 478.507 150.772 478.874 151.718 479.252 152.693 C 481.815 159.7 481.815 159.7 480.734 163.12 C 478.792 167.036 476.945 170.576 473.578 173.451 C 470.373 174.092 467.693 173.297 464.578 172.451 C 462.971 172.072 462.971 172.072 461.332 171.685 C 458.401 170.981 455.488 170.234 452.578 169.451 C 452.248 170.111 451.918 170.771 451.578 171.451 C 448.578 170.451 448.578 170.451 447.226 167.826 C 444.753 161.271 442.934 155.461 442.578 148.451 C 443.898 148.781 445.218 149.111 446.578 149.451 C 447.351 148.429 448.125 147.407 448.922 146.353 C 449.972 145.031 451.025 143.709 452.078 142.389 C 452.583 141.712 453.089 141.036 453.609 140.34 C 456.604 136.652 457.605 135.481 462.547 135.33 Z" style="fill: rgb(255, 255, 255);"/>
  <path d="M 793.656 149.353 C 794.816 149.357 795.976 149.36 797.172 149.363 C 798.982 149.376 798.982 149.376 800.828 149.389 C 802.661 149.395 802.661 149.395 804.531 149.402 C 807.547 149.414 810.562 149.43 813.578 149.451 C 812.541 155.915 811.476 162.333 809.953 168.701 C 809.693 169.799 809.432 170.898 809.164 172.029 C 808.971 172.828 808.777 173.628 808.578 174.451 C 803.063 175.692 797.708 175.673 792.078 175.701 C 791.045 175.722 790.013 175.742 788.949 175.764 C 779.429 175.813 779.429 175.813 775.578 172.451 C 773.378 168.051 774.257 162.744 775.703 158.201 C 777.374 154.171 779.673 152.443 783.578 150.451 C 786.961 149.346 790.112 149.336 793.656 149.353 Z" style="fill: rgb(255, 255, 255);"/>
  <path d="M 240.578 109.451 C 242.101 110.974 241.784 112.33 241.828 114.451 C 241.867 115.534 241.867 115.534 241.906 116.639 C 241.578 119.451 241.578 119.451 238.578 128.451 C 227.688 128.451 216.798 128.451 205.578 128.451 C 207.622 114.144 207.622 114.144 213.391 108.889 C 221.986 105.012 232.281 105.037 240.578 109.451 Z" style="fill: rgb(255, 255, 255);"/>
  <path d="M 676.578 46.451 C 675.918 47.771 675.258 49.091 674.578 50.451 C 673.918 50.451 673.258 50.451 672.578 50.451 C 672.578 49.461 672.578 48.471 672.578 47.451 C 670.928 47.451 669.278 47.451 667.578 47.451 C 667.578 47.121 667.578 46.791 667.578 46.451 C 674.328 45.326 674.328 45.326 676.578 46.451 Z" fill="#0C0D0D"/>
</svg>